<?xml version="1.0" encoding="UTF-8"?>
<!DOCTYPE svg PUBLIC "-//W3C//DTD SVG 1.1//EN" "http://www.w3.org/Graphics/SVG/1.1/DTD/svg11.dtd">
<svg version="1.2" width="17.71mm" height="20.43mm" viewBox="4301 11517 1771 2043" preserveAspectRatio="xMidYMid" fill-rule="evenodd" stroke-width="28.222" stroke-linejoin="round" xmlns="http://www.w3.org/2000/svg" xmlns:ooo="http://xml.openoffice.org/svg/export" xmlns:xlink="http://www.w3.org/1999/xlink" xmlns:presentation="http://sun.com/xmlns/staroffice/presentation" xmlns:smil="http://www.w3.org/2001/SMIL20/" xmlns:anim="urn:oasis:names:tc:opendocument:xmlns:animation:1.0" xml:space="preserve">
 <defs class="EmbeddedBulletChars">
  <g id="bullet-char-template-57356" transform="scale(0.00048828125,-0.00048828125)">
   <path d="M 580,1141 L 1163,571 580,0 -4,571 580,1141 Z"/>
  </g>
  <g id="bullet-char-template-57354" transform="scale(0.00048828125,-0.00048828125)">
   <path d="M 8,1128 L 1137,1128 1137,0 8,0 8,1128 Z"/>
  </g>
  <g id="bullet-char-template-10146" transform="scale(0.00048828125,-0.00048828125)">
   <path d="M 174,0 L 602,739 174,1481 1456,739 174,0 Z M 1358,739 L 309,1346 659,739 1358,739 Z"/>
  </g>
  <g id="bullet-char-template-10132" transform="scale(0.00048828125,-0.00048828125)">
   <path d="M 2015,739 L 1276,0 717,0 1260,543 174,543 174,936 1260,936 717,1481 1274,1481 2015,739 Z"/>
  </g>
  <g id="bullet-char-template-10007" transform="scale(0.00048828125,-0.00048828125)">
   <path d="M 0,-2 C -7,14 -16,27 -25,37 L 356,567 C 262,823 215,952 215,954 215,979 228,992 255,992 264,992 276,990 289,987 310,991 331,999 354,1012 L 381,999 492,748 772,1049 836,1024 860,1049 C 881,1039 901,1025 922,1006 886,937 835,863 770,784 769,783 710,716 594,584 L 774,223 C 774,196 753,168 711,139 L 727,119 C 717,90 699,76 672,76 641,76 570,178 457,381 L 164,-76 C 142,-110 111,-127 72,-127 30,-127 9,-110 8,-76 1,-67 -2,-52 -2,-32 -2,-23 -1,-13 0,-2 Z"/>
  </g>
  <g id="bullet-char-template-10004" transform="scale(0.00048828125,-0.00048828125)">
   <path d="M 285,-33 C 182,-33 111,30 74,156 52,228 41,333 41,471 41,549 55,616 82,672 116,743 169,778 240,778 293,778 328,747 346,684 L 369,508 C 377,444 397,411 428,410 L 1163,1116 C 1174,1127 1196,1133 1229,1133 1271,1133 1292,1118 1292,1087 L 1292,965 C 1292,929 1282,901 1262,881 L 442,47 C 390,-6 338,-33 285,-33 Z"/>
  </g>
  <g id="bullet-char-template-9679" transform="scale(0.00048828125,-0.00048828125)">
   <path d="M 813,0 C 632,0 489,54 383,161 276,268 223,411 223,592 223,773 276,916 383,1023 489,1130 632,1184 813,1184 992,1184 1136,1130 1245,1023 1353,916 1407,772 1407,592 1407,412 1353,268 1245,161 1136,54 992,0 813,0 Z"/>
  </g>
  <g id="bullet-char-template-8226" transform="scale(0.00048828125,-0.00048828125)">
   <path d="M 346,457 C 273,457 209,483 155,535 101,586 74,649 74,723 74,796 101,859 155,911 209,963 273,989 346,989 419,989 480,963 531,910 582,859 608,796 608,723 608,648 583,586 532,535 482,483 420,457 346,457 Z"/>
  </g>
  <g id="bullet-char-template-8211" transform="scale(0.00048828125,-0.00048828125)">
   <path d="M -4,459 L 1135,459 1135,606 -4,606 -4,459 Z"/>
  </g>
  <g id="bullet-char-template-61548" transform="scale(0.00048828125,-0.00048828125)">
   <path d="M 173,740 C 173,903 231,1043 346,1159 462,1274 601,1332 765,1332 928,1332 1067,1274 1183,1159 1299,1043 1357,903 1357,740 1357,577 1299,437 1183,322 1067,206 928,148 765,148 601,148 462,206 346,322 231,437 173,577 173,740 Z"/>
  </g>
 </defs>
 <g class="Page">
  <g class="com.sun.star.drawing.CustomShape">
   <g id="id3">
    <rect class="BoundingBox" stroke="none" fill="none" x="4301" y="11517" width="1771" height="2043"/>
    <path fill="rgb(55,106,96)" stroke="none" d="M 6070,11841 L 6034,11804 5998,11770 5958,11738 5918,11708 5876,11679 5832,11652 5787,11628 5741,11607 5694,11588 5647,11571 5599,11555 5549,11543 5500,11533 5449,11526 5399,11520 5348,11518 5297,11518 5246,11521 5196,11526 5146,11533 5096,11544 5047,11557 4998,11571 4950,11588 4903,11608 4857,11630 4813,11655 4770,11680 4728,11709 4687,11740 4649,11772 4610,11807 4575,11842 4542,11880 4510,11920 4481,11961 4453,12004 4427,12048 4404,12093 4383,12139 4364,12185 4347,12233 4333,12282 4322,12331 4313,12381 4306,12432 4302,12482 4301,12533 4302,12583 4306,12634 4311,12684 4320,12734 4331,12783 4345,12832 4360,12880 4379,12928 4399,12974 4422,13020 4448,13064 4474,13106 4504,13147 4535,13187 4569,13225 4604,13263 4640,13297 4679,13330 4719,13361 4761,13389 4804,13417 4849,13441 4894,13464 4941,13483 4988,13501 5036,13517 5085,13530 5135,13540 5185,13548 5236,13555 5286,13557 5337,13558 5388,13556 5439,13552 5489,13545 5539,13535 5588,13523 5637,13509 5686,13493 5733,13473 5778,13452 5823,13428 5867,13403 5909,13375 5950,13345 5989,13313 6028,13278 6064,13243 5827,13018 5803,13042 5777,13065 5750,13087 5722,13108 5693,13127 5663,13144 5633,13159 5602,13174 5570,13187 5537,13199 5504,13209 5471,13217 5437,13223 5402,13227 5368,13230 5334,13232 5299,13232 5265,13230 5230,13226 5196,13220 5162,13213 5129,13204 5096,13194 5063,13182 5032,13168 5001,13152 4970,13136 4941,13118 4912,13098 4885,13077 4860,13055 4834,13032 4810,13007 4788,12980 4766,12953 4746,12925 4727,12896 4710,12866 4695,12836 4681,12804 4669,12772 4658,12740 4648,12706 4641,12673 4636,12639 4631,12605 4629,12571 4628,12536 4629,12502 4631,12468 4636,12433 4643,12400 4650,12366 4660,12333 4671,12300 4683,12268 4697,12237 4714,12206 4731,12176 4750,12147 4770,12119 4791,12092 4814,12068 4838,12043 4863,12019 4891,11997 4918,11976 4947,11957 4976,11939 5006,11922 5037,11908 5069,11894 5101,11882 5134,11872 5168,11863 5202,11856 5236,11852 5270,11848 5305,11846 5339,11846 5374,11848 5408,11851 5442,11857 5476,11863 5510,11871 5543,11881 5575,11893 5607,11906 5639,11920 5669,11937 5699,11955 5727,11974 5755,11995 5781,12017 5806,12040 5831,12064 6070,11841 Z"/>
   </g>
  </g>
  <g class="com.sun.star.drawing.CustomShape">
   <g id="id4">
    <rect class="BoundingBox" stroke="none" fill="none" x="4781" y="12026" width="1050" height="1046"/>
    <path fill="rgb(61,174,172)" stroke="none" d="M 5830,12549 C 5830,12640 5806,12730 5760,12810 5714,12889 5647,12955 5568,13001 5488,13047 5398,13071 5306,13071 5213,13071 5123,13047 5043,13001 4964,12955 4897,12889 4851,12810 4805,12730 4781,12640 4781,12549 4781,12457 4805,12367 4851,12287 4897,12208 4964,12142 5043,12096 5123,12050 5213,12026 5306,12026 5398,12026 5488,12050 5568,12096 5647,12142 5714,12208 5760,12287 5806,12367 5830,12457 5830,12549 L 5830,12549 Z M 5512,12549 C 5512,12585 5502,12620 5484,12651 5466,12683 5440,12709 5409,12727 5377,12745 5342,12754 5306,12754 5269,12754 5234,12745 5202,12727 5171,12709 5145,12683 5127,12651 5109,12620 5099,12585 5099,12549 5099,12512 5109,12477 5127,12446 5145,12414 5171,12388 5202,12370 5234,12352 5269,12343 5306,12343 5342,12343 5377,12352 5409,12370 5440,12388 5466,12414 5484,12446 5502,12477 5512,12512 5512,12549 L 5512,12549 Z"/>
   </g>
  </g>
 </g>
</svg>